<?xml version="1.0" encoding="UTF-8" standalone="no"?>
<svg
   width="200pt"
   height="200pt"
   viewBox="0 0 200 200"
   version="1.1"
   id="svg5"
   sodipodi:docname="SNC.svg"
   inkscape:version="1.3.2 (091e20e, 2023-11-25, custom)"
   xmlns:inkscape="http://www.inkscape.org/namespaces/inkscape"
   xmlns:sodipodi="http://sodipodi.sourceforge.net/DTD/sodipodi-0.dtd"
   xmlns="http://www.w3.org/2000/svg"
   xmlns:svg="http://www.w3.org/2000/svg">
  <defs
     id="defs5" />
  <sodipodi:namedview
     id="namedview5"
     pagecolor="#ffffff"
     bordercolor="#000000"
     borderopacity="0.25"
     inkscape:showpageshadow="2"
     inkscape:pageopacity="0.0"
     inkscape:pagecheckerboard="0"
     inkscape:deskcolor="#d1d1d1"
     inkscape:document-units="pt"
     inkscape:zoom="4.57875"
     inkscape:cx="56.784057"
     inkscape:cy="131.14933"
     inkscape:window-width="2560"
     inkscape:window-height="1494"
     inkscape:window-x="-11"
     inkscape:window-y="-11"
     inkscape:window-maximized="1"
     inkscape:current-layer="#0000ffff" />
  <g
     id="#0000ffff"
     inkscape:label="SNC">
    <path
       fill="#0000ff"
       opacity="1.00"
       d=" M 65.15 22.17 C 70.39 16.70 75.82 11.39 81.61 6.49 C 94.46 10.99 107.44 15.12 120.24 19.77 C 118.24 21.26 116.15 22.62 114.04 23.94 C 135.96 24.08 157.88 23.96 179.80 24.00 C 179.79 57.08 179.81 90.15 179.79 123.23 C 181.74 123.93 183.70 124.63 185.65 125.34 C 183.72 126.04 181.78 126.71 179.83 127.35 C 179.76 144.89 179.82 162.44 179.80 179.99 C 138.55 179.99 97.29 180.03 56.04 179.98 C 54.00 180.07 51.68 179.56 49.98 181.02 C 42.01 186.37 33.31 190.54 24.46 194.20 C 30.46 189.27 36.80 184.75 42.97 180.03 C 36.44 179.96 29.92 180.02 23.40 179.99 C 23.40 128.00 23.41 76.00 23.39 24.01 C 36.28 23.97 49.16 24.04 62.04 23.98 C 63.42 24.22 64.28 22.99 65.15 22.17 M 25.60 25.60 C 25.60 76.40 25.60 127.20 25.60 178.00 C 32.31 177.98 39.02 178.06 45.73 177.95 C 55.99 169.89 66.10 161.60 75.32 152.34 C 80.10 147.14 85.41 141.94 87.79 135.12 C 89.07 131.92 87.79 127.74 84.13 127.00 C 74.52 125.32 64.57 126.52 55.05 124.15 C 47.02 122.57 39.09 118.52 34.49 111.54 C 28.50 102.71 27.93 91.37 29.50 81.13 C 34.02 59.72 47.59 41.74 61.72 25.61 C 49.68 25.59 37.64 25.60 25.60 25.60 M 69.07 63.01 C 61.28 72.62 53.69 84.04 54.44 96.95 C 54.34 102.50 57.98 107.72 63.03 109.88 C 72.51 114.29 83.50 112.83 93.12 116.73 C 97.33 118.27 100.44 122.47 100.22 127.03 C 100.09 134.89 95.28 141.66 90.43 147.46 C 80.07 159.36 67.45 169.02 54.56 178.01 C 95.64 177.98 136.72 178.02 177.80 177.99 C 177.76 161.42 177.87 144.84 177.75 128.27 C 170.67 130.75 163.90 134.26 157.96 138.84 C 153.41 142.59 148.71 147.64 149.16 153.99 C 148.91 157.63 151.16 161.11 154.54 162.43 C 161.35 165.13 168.85 164.10 175.93 163.34 C 173.22 165.07 170.29 166.66 167.00 166.72 C 159.60 167.02 151.50 167.16 145.06 162.94 C 140.69 160.15 139.07 154.74 139.04 149.81 C 139.90 140.27 146.44 132.40 153.68 126.67 C 157.47 123.73 161.22 120.46 165.72 118.70 C 169.79 119.72 173.69 121.32 177.65 122.70 C 178.01 90.34 177.70 57.97 177.80 25.61 C 155.80 25.59 133.79 25.62 111.78 25.59 C 96.29 36.50 81.29 48.44 69.07 63.01 Z"
       id="path4" />
    <path
       fill="#0000ff"
       opacity="1.00"
       d=" M 136.22 112.93 C 141.59 114.09 146.69 116.22 151.88 118.00 C 138.67 130.14 132.11 147.62 129.00 164.92 C 122.49 152.02 117.29 138.51 111.00 125.50 C 109.21 139.38 110.61 153.87 115.78 166.94 C 111.09 166.83 106.39 166.72 101.71 167.02 C 99.76 149.55 101.02 131.18 108.28 114.97 C 114.35 125.96 119.23 137.57 125.32 148.55 C 126.87 136.22 128.89 123.32 136.22 112.93 Z"
       id="path5" />
  </g>
</svg>
