<?xml version="1.0" encoding="UTF-8" standalone="no"?>
<svg
   width="1771pt"
   height="591pt"
   viewBox="0 0 1771 591"
   version="1.1"
   id="svg38"
   sodipodi:docname="SNClogo.svg"
   inkscape:version="1.3.2 (091e20e, 2023-11-25, custom)"
   xmlns:inkscape="http://www.inkscape.org/namespaces/inkscape"
   xmlns:sodipodi="http://sodipodi.sourceforge.net/DTD/sodipodi-0.dtd"
   xmlns="http://www.w3.org/2000/svg"
   xmlns:svg="http://www.w3.org/2000/svg">
  <defs
     id="defs38" />
  <sodipodi:namedview
     id="namedview38"
     pagecolor="#ffffff"
     bordercolor="#000000"
     borderopacity="0.25"
     inkscape:showpageshadow="2"
     inkscape:pageopacity="0.0"
     inkscape:pagecheckerboard="0"
     inkscape:deskcolor="#d1d1d1"
     inkscape:document-units="pt"
     inkscape:zoom="0.85798984"
     inkscape:cx="1180.6667"
     inkscape:cy="394.52682"
     inkscape:window-width="2560"
     inkscape:window-height="1494"
     inkscape:window-x="-11"
     inkscape:window-y="-11"
     inkscape:window-maximized="1"
     inkscape:current-layer="svg38" />
  <g
     id="#fffffffe"
     inkscape:label="SNC">
    <path
       fill="#ffffff"
       opacity="1.00"
       d=" M 182.12 67.98 C 213.02 78.23 243.73 89.12 274.71 99.13 C 271.50 101.46 268.14 103.58 264.82 105.73 C 263.39 106.72 261.63 107.48 260.99 109.22 C 311.94 109.33 362.90 109.23 413.85 109.27 C 413.82 187.32 413.89 265.37 413.81 343.42 C 418.25 345.25 422.83 346.69 427.44 348.03 C 427.60 348.30 427.91 348.86 428.07 349.13 C 423.20 350.24 418.51 351.99 413.84 353.74 C 413.85 395.04 413.84 436.35 413.85 477.65 C 313.14 477.62 212.44 477.68 111.74 477.62 C 103.07 483.24 94.55 489.14 85.53 494.18 C 74.38 498.15 63.29 502.37 52.02 506.00 C 65.02 496.90 78.00 487.70 90.37 477.77 C 75.32 477.51 60.25 477.68 45.20 477.68 C 45.20 354.87 45.19 232.05 45.20 109.24 C 76.52 109.32 107.84 109.21 139.15 109.29 C 152.82 94.86 167.09 80.99 182.12 67.98 M 50.29 472.94 C 65.86 472.92 81.42 472.97 96.99 472.92 C 121.66 453.82 145.80 433.90 167.83 411.77 C 178.22 400.60 189.06 389.29 195.44 375.23 C 198.06 369.40 199.59 361.41 194.64 356.37 C 192.10 353.22 187.89 352.68 184.22 351.74 C 162.57 349.61 140.55 350.83 119.21 345.88 C 101.10 341.99 83.05 333.29 72.12 317.82 C 58.94 299.53 55.97 275.93 57.93 253.97 C 58.85 247.24 60.07 240.55 61.70 233.95 C 64.74 222.80 68.71 211.90 73.68 201.46 C 89.03 169.01 111.14 140.29 135.07 113.74 C 106.82 113.63 78.57 113.75 50.32 113.68 C 50.21 233.43 50.29 353.19 50.29 472.94 M 173.32 179.33 C 155.16 197.63 138.17 217.71 127.07 241.16 C 120.32 255.74 116.04 272.28 119.21 288.33 C 121.26 299.20 129.44 308.09 139.48 312.33 C 160.51 321.51 184.26 319.54 205.87 326.61 C 213.68 329.17 221.47 334.08 224.50 342.09 C 228.91 353.34 225.50 365.86 220.30 376.23 C 210.76 394.75 195.97 409.81 181.02 424.03 C 161.59 441.92 140.45 457.86 118.73 472.87 C 174.82 472.97 230.91 472.96 286.98 472.95 C 327.77 473.10 368.60 472.65 409.39 473.10 C 409.42 461.03 409.47 448.97 409.37 436.90 C 404.83 439.17 400.35 441.56 395.82 443.84 C 392.51 445.58 388.69 445.21 385.15 446.04 C 377.74 446.42 370.31 447.23 362.89 446.42 C 350.49 445.56 337.22 442.92 327.85 434.15 C 320.92 427.75 318.48 418.07 317.92 408.98 C 317.78 396.38 322.90 384.29 330.26 374.25 C 343.26 356.55 361.38 343.48 380.04 332.30 C 389.94 335.16 399.51 339.08 409.42 341.95 C 409.42 265.87 409.43 189.79 409.41 113.71 C 357.28 113.69 305.15 113.69 253.02 113.70 C 224.87 133.54 197.62 154.87 173.32 179.33 M 370.58 374.75 C 360.25 381.75 350.16 390.21 344.83 401.76 C 341.24 409.56 340.67 418.97 344.25 426.86 C 348.41 434.81 357.75 437.72 366.02 439.03 C 380.47 440.82 395.23 439.81 409.44 436.69 C 409.38 409.60 409.46 382.51 409.40 355.43 C 395.86 360.51 382.70 366.81 370.58 374.75 Z"
       id="path1"
       style="fill:#0000ff;fill-opacity:1" />
    <path
       fill="#ffffff"
       opacity="1.00"
       d=" M 1372.38 119.74 C 1381.66 120.12 1391.48 120.95 1399.58 125.97 C 1398.33 128.10 1396.37 129.59 1394.48 131.08 C 1394.52 142.55 1394.49 154.03 1394.50 165.50 C 1407.62 165.50 1420.73 165.49 1433.85 165.50 C 1436.40 162.17 1439.20 159.03 1441.93 155.83 C 1450.34 158.50 1458.10 162.81 1465.23 167.97 C 1464.67 171.96 1459.88 172.68 1456.97 174.45 C 1457.73 189.58 1458.30 204.72 1459.06 219.85 C 1455.95 223.85 1450.66 224.81 1445.95 225.45 C 1442.68 225.55 1438.47 224.49 1437.41 220.96 C 1437.05 217.98 1437.29 214.98 1437.25 212.00 C 1423.00 212.00 1408.75 211.99 1394.50 212.01 C 1394.66 232.02 1395.00 252.03 1395.04 272.04 C 1394.92 275.77 1396.52 280.52 1393.29 283.36 C 1388.76 286.89 1382.31 287.35 1377.00 285.53 C 1375.11 284.94 1373.66 283.17 1374.00 281.13 C 1373.99 258.09 1374.00 235.04 1374.00 212.00 C 1359.58 212.00 1345.17 212.00 1330.75 212.00 C 1330.12 216.91 1332.72 223.49 1327.76 226.80 C 1324.32 229.08 1320.08 230.36 1315.96 230.24 C 1313.17 230.32 1310.74 227.87 1311.01 225.08 C 1311.10 202.35 1311.58 179.63 1311.60 156.90 C 1318.90 155.67 1324.62 161.59 1330.09 165.49 C 1344.72 165.50 1359.36 165.50 1374.00 165.50 C 1374.01 154.67 1373.98 143.84 1374.02 133.02 C 1374.30 128.50 1372.71 124.20 1372.38 119.74 M 1330.75 169.00 C 1330.75 182.17 1330.75 195.33 1330.75 208.50 C 1345.17 208.50 1359.58 208.50 1374.00 208.50 C 1374.00 195.33 1374.00 182.17 1374.00 169.00 C 1359.58 169.00 1345.17 169.00 1330.75 169.00 M 1394.50 169.00 C 1394.50 182.17 1394.50 195.33 1394.50 208.50 C 1408.75 208.50 1423.00 208.50 1437.25 208.50 C 1437.24 195.33 1437.24 182.17 1437.25 169.00 C 1423.00 169.00 1408.75 169.00 1394.50 169.00 Z"
       id="path2"
       style="fill:#0000ff;fill-opacity:1" />
    <path
       fill="#ffffff"
       opacity="1.00"
       d=" M 527.85 122.29 C 531.04 121.20 533.98 123.32 536.86 124.39 C 546.44 128.70 556.03 135.36 559.69 145.67 C 561.65 150.74 561.55 157.42 556.98 161.08 C 553.03 164.81 545.79 165.33 542.21 160.84 C 538.86 157.02 539.45 151.71 538.93 147.03 C 538.52 140.66 536.14 134.50 532.45 129.32 C 530.86 127.00 528.57 125.11 527.85 122.29 Z"
       id="path3"
       style="fill:#0000ff;fill-opacity:1" />
    <path
       fill="#ffffff"
       opacity="1.00"
       d=" M 1105.04 170.75 C 1113.81 155.53 1119.47 138.79 1126.73 122.85 C 1130.15 122.67 1133.05 124.61 1136.03 125.98 C 1140.17 127.95 1144.38 129.77 1148.54 131.70 C 1149.70 132.27 1150.36 134.17 1149.23 135.12 C 1146.55 137.92 1142.56 139.21 1140.32 142.45 C 1131.82 154.39 1123.29 166.30 1114.78 178.23 C 1119.13 179.09 1123.48 179.97 1127.83 180.84 C 1131.96 173.46 1134.67 165.44 1138.19 157.79 C 1144.92 161.04 1151.59 164.41 1158.27 167.79 C 1159.63 168.26 1160.35 170.81 1158.94 171.64 C 1157.17 172.99 1154.86 173.62 1153.47 175.41 C 1143.04 188.24 1132.57 201.04 1122.18 213.91 C 1132.42 212.78 1142.72 212.22 1152.98 211.30 C 1154.55 210.97 1156.05 211.41 1157.23 212.52 C 1156.02 213.59 1154.73 214.59 1153.24 215.21 C 1136.85 222.87 1120.57 230.76 1104.16 238.37 C 1101.82 235.38 1101.67 231.45 1100.67 227.93 C 1099.83 223.87 1098.02 220.05 1097.43 215.94 C 1100.91 213.77 1105.34 213.24 1108.54 210.47 C 1115.62 205.11 1118.86 196.58 1123.58 189.37 C 1115.39 191.16 1107.45 194.49 1099.13 195.38 C 1098.12 188.93 1096.27 182.66 1095.21 176.22 C 1098.96 175.71 1103.22 174.42 1105.04 170.75 Z"
       id="path4"
       style="fill:#0000ff;fill-opacity:1" />
    <path
       fill="#ffffff"
       opacity="1.00"
       d=" M 1171.90 134.85 C 1172.90 130.86 1173.25 126.71 1174.71 122.84 C 1179.02 122.68 1182.77 125.01 1186.79 126.22 C 1191.65 128.12 1196.77 129.34 1201.56 131.43 C 1203.49 134.35 1199.72 135.78 1197.55 136.37 C 1195.16 140.72 1192.68 145.01 1190.08 149.23 C 1197.10 149.26 1204.13 149.25 1211.16 149.24 C 1213.84 146.22 1216.33 141.08 1221.17 142.08 C 1226.58 145.07 1231.53 148.81 1236.61 152.31 C 1238.00 153.39 1239.73 154.33 1240.41 156.08 C 1239.28 159.93 1234.03 159.96 1232.34 163.46 C 1226.64 172.13 1219.84 180.03 1212.26 187.11 C 1222.73 194.47 1235.27 198.48 1247.94 199.76 C 1252.37 200.49 1256.91 199.86 1261.32 200.75 C 1261.29 202.25 1260.97 203.84 1259.55 204.63 C 1252.68 209.71 1247.61 217.00 1245.00 225.12 C 1228.29 220.54 1212.66 211.04 1201.78 197.42 C 1191.77 206.04 1180.37 212.86 1168.59 218.76 C 1172.14 220.51 1175.76 222.18 1179.01 224.49 C 1190.41 224.53 1201.80 224.46 1213.20 224.52 C 1215.81 222.26 1217.10 217.89 1221.09 217.76 C 1224.75 218.57 1227.79 221.02 1231.03 222.81 C 1233.39 224.47 1236.34 225.58 1238.04 228.01 C 1237.95 230.98 1234.98 232.47 1232.76 233.79 C 1232.78 248.53 1232.69 263.28 1232.80 278.02 C 1230.28 281.34 1225.79 281.58 1221.99 281.95 C 1219.33 281.89 1215.48 281.58 1214.63 278.51 C 1214.30 275.18 1214.56 271.83 1214.50 268.50 C 1202.66 268.50 1190.83 268.50 1179.00 268.50 C 1178.41 272.92 1180.90 279.36 1175.93 281.92 C 1171.53 284.28 1163.13 284.04 1162.09 277.99 C 1161.85 262.31 1162.10 246.62 1161.97 230.94 C 1161.76 227.78 1160.79 224.72 1160.88 221.53 C 1154.90 223.93 1149.09 227.51 1142.54 227.84 C 1142.93 226.30 1142.92 224.24 1144.79 223.71 C 1162.90 213.76 1180.17 201.67 1193.54 185.75 C 1188.49 177.99 1185.49 169.18 1182.41 160.52 C 1173.62 174.10 1163.38 187.20 1150.05 196.56 C 1147.49 196.88 1147.43 194.09 1148.72 192.64 C 1160.80 175.47 1167.22 155.11 1171.90 134.85 M 1187.28 153.00 C 1186.57 154.24 1185.84 155.46 1185.12 156.68 C 1189.84 163.64 1194.98 170.32 1200.46 176.70 C 1206.00 169.80 1210.74 161.80 1212.34 153.00 C 1203.98 153.00 1195.63 153.00 1187.28 153.00 M 1179.00 228.25 C 1178.99 240.50 1179.00 252.75 1179.00 265.00 C 1190.83 265.00 1202.66 265.00 1214.50 265.00 C 1214.50 252.75 1214.49 240.50 1214.50 228.26 C 1202.67 228.24 1190.83 228.26 1179.00 228.25 Z"
       id="path5"
       style="fill:#0000ff;fill-opacity:1" />
    <path
       fill="#ffffff"
       opacity="1.00"
       d=" M 585.86 125.60 C 587.50 125.26 589.28 124.53 590.93 125.26 C 598.15 128.53 605.23 132.10 612.44 135.39 C 614.20 135.79 614.72 137.47 614.03 139.05 C 610.47 141.26 606.46 142.70 603.09 145.23 C 592.17 153.42 582.13 162.73 572.91 172.77 C 581.88 172.72 590.86 172.76 599.84 172.75 C 602.13 169.44 604.76 166.34 607.85 163.74 C 615.11 168.12 621.78 173.41 628.55 178.50 C 630.51 179.70 629.09 181.86 628.10 183.17 C 616.99 182.59 606.06 186.67 597.18 193.19 C 595.96 194.41 592.83 194.58 593.82 192.06 C 595.79 186.77 598.28 181.70 600.46 176.50 C 563.70 176.48 526.93 176.54 490.16 176.47 C 491.88 183.46 492.89 191.95 487.76 197.81 C 483.42 202.40 475.32 206.10 469.97 201.02 C 467.51 197.71 466.45 192.99 468.10 189.09 C 469.85 184.49 474.91 182.48 477.19 178.22 C 479.88 173.31 480.35 167.52 480.23 162.02 C 481.11 161.39 482.00 160.76 482.90 160.15 C 485.30 164.10 487.10 168.39 488.65 172.74 C 515.24 172.75 541.82 172.76 568.40 172.73 C 573.68 156.83 580.12 141.34 585.86 125.60 Z"
       id="path6"
       style="fill:#0000ff;fill-opacity:1" />
    <path
       fill="#ffffff"
       opacity="1.00"
       d=" M 1020.60 135.24 C 1022.95 131.94 1025.39 128.69 1028.07 125.64 C 1029.54 125.73 1031.08 125.74 1032.41 126.55 C 1038.08 129.40 1043.41 132.89 1048.55 136.60 C 1048.52 137.33 1048.47 138.78 1048.44 139.50 C 1046.32 141.07 1044.25 142.69 1042.21 144.34 C 1043.00 161.20 1042.04 178.12 1042.76 194.99 C 1042.55 218.35 1043.12 241.69 1043.00 265.05 C 1043.00 270.19 1040.49 275.24 1036.36 278.30 C 1031.68 281.82 1025.84 283.19 1020.16 284.07 C 1015.90 283.01 1017.57 278.00 1015.57 275.09 C 1012.20 268.15 1004.43 265.26 997.40 263.58 C 997.23 261.92 997.30 260.27 997.91 258.70 C 1004.51 259.84 1011.42 261.48 1018.04 259.54 C 1020.82 258.72 1022.99 256.06 1022.75 253.09 C 1022.75 214.98 1022.74 176.87 1022.75 138.75 C 986.92 138.75 951.09 138.76 915.26 138.75 C 915.26 182.81 915.23 226.87 915.27 270.93 C 915.15 272.78 915.66 274.89 914.36 276.45 C 911.73 279.80 907.09 280.49 903.11 280.72 C 900.14 280.68 895.87 279.74 895.77 276.06 C 895.77 246.55 896.41 217.05 896.59 187.55 C 896.72 167.21 897.65 146.85 896.24 126.54 C 901.37 127.30 906.18 129.43 911.06 131.12 C 913.62 132.26 916.67 132.84 918.45 135.23 C 952.50 135.27 986.55 135.24 1020.60 135.24 Z"
       id="path7"
       style="fill:#0000ff;fill-opacity:1" />
    <path
       fill="#ffffff"
       opacity="1.00"
       d=" M 491.12 127.11 L 492.14 126.41 C 500.22 129.06 508.10 132.85 514.70 138.29 C 519.97 142.56 523.61 148.92 523.86 155.79 C 525.26 163.12 518.48 170.50 511.06 169.66 C 506.15 169.42 502.41 164.79 502.19 160.08 C 501.76 154.71 502.18 149.11 499.85 144.10 C 497.78 138.13 493.54 133.34 490.49 127.94 L 491.12 127.11 Z"
       id="path8"
       style="fill:#0000ff;fill-opacity:1" />
    <path
       fill="#ffffff"
       opacity="1.00"
       d=" M 746.07 127.02 C 755.26 127.04 765.74 127.34 772.97 133.81 C 771.48 135.42 769.77 136.78 768.19 138.28 C 767.37 139.69 767.88 141.43 767.74 142.98 C 767.78 154.07 767.74 165.16 767.76 176.24 C 776.49 176.25 785.23 176.24 793.96 176.25 C 797.12 171.71 800.25 167.12 804.06 163.10 C 805.05 161.62 807.11 161.68 808.46 162.64 C 814.39 166.15 820.47 169.67 825.40 174.55 C 826.69 175.77 828.41 178.90 825.82 179.68 C 806.47 179.86 787.11 179.70 767.76 179.76 C 767.75 194.67 767.75 209.58 767.75 224.50 C 774.73 224.50 781.71 224.50 788.69 224.50 C 791.98 219.80 795.19 214.97 799.27 210.91 C 801.13 209.65 803.26 211.04 804.90 212.04 C 810.38 215.50 816.19 218.74 820.59 223.58 C 821.91 224.79 821.87 226.58 821.30 228.15 C 803.45 228.38 785.60 228.19 767.75 228.25 C 767.75 243.33 767.75 258.41 767.75 273.50 C 780.53 273.50 793.31 273.49 806.09 273.50 C 809.24 268.70 813.35 264.71 817.39 260.68 C 818.77 260.76 820.26 260.68 821.43 261.63 C 827.11 265.13 833.16 268.16 838.23 272.57 C 839.97 273.59 839.99 275.51 839.16 277.16 C 797.77 277.38 756.39 277.19 715.00 277.25 C 703.42 277.35 691.82 276.89 680.27 277.90 C 679.09 276.26 677.92 274.63 676.74 273.00 C 680.45 273.70 684.23 273.48 687.99 273.50 C 708.07 273.50 728.16 273.50 748.25 273.50 C 748.24 258.41 748.25 243.33 748.25 228.25 C 733.84 228.51 719.40 227.67 705.03 228.80 C 703.91 227.17 702.77 225.55 701.65 223.93 C 717.15 225.08 732.72 224.25 748.25 224.50 C 748.24 209.58 748.25 194.67 748.24 179.76 C 738.44 179.75 728.63 179.75 718.83 179.75 C 710.65 199.17 699.79 218.05 683.83 232.12 C 680.85 230.47 683.62 227.63 684.38 225.45 C 696.06 199.32 702.19 171.15 707.22 143.10 L 708.15 142.35 C 717.46 143.92 726.62 146.56 735.55 149.64 C 735.47 154.27 729.18 153.89 727.90 157.83 C 725.34 163.97 722.87 170.14 720.24 176.25 C 729.58 176.23 738.91 176.25 748.24 176.24 C 748.24 164.47 748.25 152.69 748.25 140.91 C 748.33 136.16 746.34 131.73 746.07 127.02 Z"
       id="path9"
       style="fill:#0000ff;fill-opacity:1" />
    <path
       fill="#ffffff"
       opacity="1.00"
       d=" M 1579.42 127.39 C 1587.30 127.26 1595.18 129.45 1602.39 132.56 C 1610.29 136.31 1618.00 142.84 1619.51 151.89 C 1621.12 159.34 1615.85 167.77 1608.23 169.00 C 1603.77 169.68 1599.95 166.55 1597.59 163.12 C 1595.45 159.75 1595.52 155.61 1594.68 151.84 C 1593.03 143.72 1588.54 136.23 1581.99 131.12 C 1580.96 129.99 1578.48 129.30 1579.42 127.39 Z"
       id="path10"
       style="fill:#0000ff;fill-opacity:1" />
    <path
       fill="#ffffff"
       opacity="1.00"
       d=" M 943.92 151.07 C 943.82 149.42 944.91 148.22 945.89 147.04 C 953.50 149.21 961.05 151.73 968.27 154.99 C 970.81 155.63 969.86 159.27 967.91 160.01 C 965.51 161.40 961.96 161.97 961.25 165.10 C 958.16 174.43 954.95 183.73 951.74 193.02 C 957.07 198.87 961.95 205.25 965.43 212.39 C 967.77 217.34 968.66 223.60 965.70 228.48 C 963.73 231.85 959.81 234.01 955.92 233.71 C 951.68 233.22 949.01 229.28 947.51 225.64 C 945.60 221.20 945.94 216.22 944.18 211.73 C 937.72 227.89 929.88 243.61 919.96 257.94 C 919.19 256.89 917.10 255.76 918.12 254.20 C 926.64 235.08 932.97 215.03 937.28 194.55 C 932.23 186.01 926.17 178.15 920.42 170.11 L 920.59 168.90 C 920.93 168.71 921.63 168.34 921.98 168.15 C 928.51 171.76 934.40 176.45 940.05 181.31 C 941.21 171.21 942.82 161.17 943.92 151.07 Z"
       id="path11"
       style="fill:#0000ff;fill-opacity:1" />
    <path
       fill="#ffffff"
       opacity="1.00"
       d=" M 990.29 152.98 C 990.24 151.13 991.55 148.59 993.77 149.45 C 1001.80 151.88 1010.18 153.81 1017.53 157.98 C 1017.25 162.32 1012.36 162.96 1009.44 165.06 C 1006.62 175.41 1002.68 185.44 998.09 195.14 C 1004.64 203.37 1010.84 211.97 1015.59 221.39 C 1018.02 226.28 1019.22 232.48 1016.30 237.43 C 1014.10 241.84 1008.39 244.36 1003.76 242.40 C 1000.72 240.66 998.72 237.51 997.78 234.20 C 995.30 226.24 994.08 217.88 990.49 210.29 C 979.63 229.31 965.63 246.64 948.72 260.61 C 947.99 260.43 946.54 260.07 945.81 259.89 C 946.00 257.55 947.90 255.99 949.23 254.25 C 963.98 236.11 975.65 215.39 982.93 193.15 C 978.38 183.01 971.93 173.82 964.31 165.76 C 965.12 165.10 965.94 164.46 966.79 163.83 C 973.70 168.73 979.87 174.56 985.77 180.63 C 988.22 171.60 989.92 162.34 990.29 152.98 Z"
       id="path12"
       style="fill:#0000ff;fill-opacity:1" />
    <path
       fill="#ffffff"
       opacity="1.00"
       d=" M 1564.97 163.57 C 1573.17 164.60 1581.04 167.44 1588.81 170.18 C 1588.79 170.82 1588.74 172.08 1588.72 172.72 C 1587.28 174.11 1585.71 175.35 1584.03 176.42 C 1583.97 200.63 1584.00 224.85 1584.02 249.06 C 1583.74 254.07 1587.98 258.23 1592.84 258.59 C 1599.14 258.94 1605.46 258.65 1611.78 258.79 C 1618.25 258.90 1624.54 255.41 1627.86 249.84 C 1632.58 241.99 1634.63 232.91 1636.52 224.05 C 1636.63 222.67 1637.48 222.10 1639.06 222.35 C 1638.38 232.91 1636.89 243.70 1639.35 254.14 C 1639.97 258.53 1645.60 260.27 1645.15 265.01 C 1644.88 270.13 1639.90 273.05 1635.52 274.39 C 1623.07 278.20 1609.88 277.05 1597.05 277.26 C 1589.16 277.13 1580.99 276.58 1573.73 273.24 C 1569.41 271.22 1565.79 267.21 1565.59 262.25 C 1565.15 229.37 1566.08 196.45 1564.97 163.57 Z"
       id="path13"
       style="fill:#0000ff;fill-opacity:1" />
    <path
       fill="#ffffff"
       opacity="1.00"
       d=" M 1631.58 180.99 C 1631.69 180.59 1631.91 179.80 1632.02 179.41 C 1647.70 183.82 1664.21 190.26 1674.19 203.83 C 1679.26 210.81 1682.36 220.15 1679.43 228.61 C 1677.81 233.61 1673.23 237.47 1668.05 238.24 C 1663.38 238.79 1659.48 235.26 1657.26 231.53 C 1654.82 226.38 1653.53 220.73 1653.13 215.07 C 1650.43 201.45 1640.58 190.93 1631.58 180.99 Z"
       id="path14"
       style="fill:#0000ff;fill-opacity:1" />
    <path
       fill="#ffffff"
       opacity="1.00"
       d=" M 1536.69 182.72 C 1537.25 182.62 1538.37 182.42 1538.93 182.31 C 1546.24 191.11 1549.84 202.67 1549.78 214.04 C 1549.85 221.94 1547.44 230.10 1541.95 235.93 C 1538.64 239.58 1533.94 242.77 1528.78 241.90 C 1522.42 241.25 1517.23 234.32 1519.43 228.04 C 1522.25 220.57 1529.13 215.67 1532.76 208.66 C 1537.24 200.86 1538.09 191.49 1536.69 182.72 Z"
       id="path15"
       style="fill:#0000ff;fill-opacity:1" />
    <path
       fill="#ffffff"
       opacity="1.00"
       d=" M 574.50 186.98 C 576.14 187.10 577.97 186.66 579.44 187.65 C 585.84 191.01 591.90 195.06 597.41 199.75 C 599.30 200.90 597.93 203.30 596.98 204.64 C 585.36 203.65 574.09 207.99 563.99 213.32 C 564.00 213.98 564.00 215.28 564.01 215.94 C 562.58 217.16 561.15 218.38 559.74 219.61 C 559.76 223.74 559.75 227.87 559.75 232.00 C 572.51 232.00 585.26 231.99 598.01 232.01 C 601.56 227.04 605.01 221.95 609.37 217.64 C 612.05 217.58 614.17 219.37 616.37 220.65 C 621.17 223.72 626.23 226.68 630.06 230.99 C 631.18 232.09 631.22 233.70 631.27 235.17 C 628.20 235.66 625.09 235.49 622.01 235.50 C 601.34 235.50 580.67 235.50 560.00 235.50 C 559.90 246.01 560.59 256.51 560.52 267.02 C 560.66 271.18 559.37 275.42 556.69 278.64 C 552.37 283.75 545.51 285.75 539.10 286.50 C 537.26 286.80 535.72 285.67 534.20 284.87 C 532.58 276.03 525.02 269.38 516.47 267.40 C 514.55 266.61 510.93 266.98 511.44 263.92 C 511.84 263.51 512.64 262.67 513.04 262.26 C 520.16 262.85 527.49 264.24 534.53 262.30 C 537.39 261.54 540.28 259.34 540.20 256.10 C 540.33 249.24 540.20 242.37 540.25 235.50 C 527.15 235.50 514.05 235.50 500.96 235.50 C 490.82 235.56 480.65 235.16 470.56 236.36 C 469.12 234.75 467.86 232.99 466.81 231.11 C 469.56 231.36 472.27 232.01 475.05 232.01 C 496.78 231.99 518.51 232.00 540.25 232.00 C 540.33 224.33 540.50 216.64 538.82 209.10 C 539.14 208.77 539.77 208.11 540.09 207.78 C 546.40 209.04 552.68 210.53 559.00 211.77 C 561.90 207.09 565.04 202.55 568.15 198.00 C 546.25 198.24 524.33 197.45 502.45 198.54 C 501.31 196.92 500.16 195.31 499.04 193.68 C 506.34 194.51 513.69 194.20 521.03 194.25 C 536.75 194.24 552.48 194.26 568.21 194.24 C 570.27 191.79 572.59 189.56 574.50 186.98 Z"
       id="path16"
       style="fill:#0000ff;fill-opacity:1" />
    <path
       fill="#ffffff"
       opacity="1.00"
       d=" M 1148.07 246.48 C 1150.83 245.81 1153.59 245.06 1156.46 244.96 C 1156.08 246.85 1155.13 248.61 1153.40 249.57 C 1138.38 259.75 1123.35 269.93 1108.30 280.07 C 1105.88 279.54 1105.48 277.02 1104.62 275.11 C 1102.51 269.68 1099.94 264.45 1097.47 259.19 C 1100.01 257.52 1103.10 257.22 1105.99 256.47 C 1120.02 253.16 1134.04 249.81 1148.07 246.48 Z"
       id="path17"
       style="fill:#0000ff;fill-opacity:1" />
    <path
       fill="#ffffff"
       opacity="1.00"
       d=" M 298.06 343.89 C 301.67 334.86 305.70 325.56 312.70 318.60 C 322.83 322.55 333.29 325.60 343.52 329.27 C 345.19 330.03 347.35 330.05 348.71 331.35 C 331.47 346.78 318.86 366.79 309.92 388.00 C 302.17 406.21 297.51 425.56 294.42 445.06 C 280.59 413.13 266.16 381.45 252.03 349.66 C 250.84 351.66 251.38 354.10 250.97 356.32 C 250.08 362.83 250.49 369.41 250.39 375.96 C 250.02 392.74 252.29 409.52 256.37 425.78 C 258.34 432.89 260.34 440.08 263.79 446.65 C 252.35 446.88 240.90 446.62 229.46 446.78 C 226.81 426.71 226.98 406.25 229.09 386.14 C 231.19 364.43 236.39 342.92 245.42 323.02 C 259.00 349.48 271.73 376.38 285.06 402.97 C 286.76 396.84 286.62 390.30 288.00 384.08 C 290.08 370.41 293.21 356.86 298.06 343.89 Z"
       id="path18"
       style="fill:#0000ff;fill-opacity:1" />
    <path
       fill="#ffffff"
       opacity="1.00"
       d=" M 472.11 382.14 C 474.72 374.45 482.00 368.89 490.03 368.09 C 497.05 366.61 503.75 369.70 510.05 372.36 C 513.17 373.82 514.49 370.12 514.89 367.76 C 515.79 367.75 517.60 367.75 518.50 367.75 C 518.51 377.74 518.49 387.73 518.51 397.72 C 517.40 397.74 516.29 397.77 515.20 397.81 C 512.62 388.95 509.30 378.96 500.73 374.20 C 494.62 370.49 485.27 372.85 482.87 379.91 C 480.94 385.96 481.63 393.86 487.28 397.75 C 494.62 403.24 502.90 407.33 510.43 412.55 C 523.22 422.32 524.43 442.06 516.24 455.13 C 510.27 464.14 498.29 467.01 488.14 465.23 C 483.62 464.68 479.51 462.33 474.97 461.98 C 473.03 462.18 472.60 464.37 471.75 465.76 C 471.00 465.76 469.50 465.76 468.75 465.75 C 468.74 454.67 468.75 443.59 468.75 432.52 C 469.81 432.50 470.89 432.48 471.97 432.47 C 473.93 441.46 476.41 451.17 483.50 457.57 C 489.32 462.87 499.73 463.42 504.95 457.03 C 509.12 451.06 509.74 441.99 504.73 436.29 C 502.26 433.28 498.78 431.44 495.42 429.61 C 487.62 424.31 478.73 419.73 473.69 411.39 C 468.02 402.74 468.87 391.52 472.11 382.14 Z"
       id="path19"
       style="fill:#0000ff;fill-opacity:1" />
    <path
       fill="#ffffff"
       opacity="1.00"
       d=" M 1370.48 370.64 C 1376.52 368.50 1383.19 366.68 1389.53 368.64 C 1394.93 369.91 1399.65 373.00 1404.84 374.83 C 1407.84 374.27 1408.45 370.68 1409.42 368.27 C 1410.18 368.26 1411.72 368.23 1412.49 368.22 C 1412.51 379.27 1412.51 390.33 1412.49 401.38 C 1411.85 401.32 1410.56 401.19 1409.92 401.13 C 1406.46 392.86 1402.85 384.19 1395.96 378.15 C 1391.25 373.85 1384.11 371.36 1378.03 374.14 C 1372.24 376.72 1369.23 382.81 1367.38 388.54 C 1364.56 398.07 1364.11 408.10 1363.99 417.98 C 1364.26 427.10 1364.55 436.46 1367.73 445.12 C 1370.11 451.62 1375.09 457.68 1382.03 459.46 C 1388.32 461.25 1394.97 458.84 1400.00 455.02 C 1404.39 451.56 1408.00 447.21 1411.15 442.62 C 1412.38 443.77 1413.62 444.91 1414.90 446.03 C 1410.01 453.35 1403.79 460.28 1395.47 463.67 C 1387.73 466.90 1378.95 466.02 1371.14 463.59 C 1362.75 461.03 1355.74 454.85 1351.63 447.19 C 1346.79 438.25 1345.02 428.00 1344.50 417.96 C 1344.92 408.33 1346.58 398.58 1350.63 389.77 C 1354.54 381.20 1361.58 373.96 1370.48 370.64 Z"
       id="path20"
       style="fill:#0000ff;fill-opacity:1" />
    <path
       fill="#ffffff"
       opacity="1.00"
       d=" M 660.75 370.00 C 668.67 370.01 676.59 369.99 684.51 370.01 C 684.50 397.33 684.48 424.65 684.52 451.97 C 684.33 455.64 687.77 457.77 691.04 458.02 C 690.99 459.18 690.94 460.35 690.89 461.52 C 683.67 462.78 676.34 463.25 669.15 464.71 C 669.34 462.24 669.65 459.78 669.60 457.30 C 666.78 460.09 664.06 463.27 660.11 464.45 C 652.46 467.13 643.93 462.77 639.92 456.12 C 635.79 449.20 634.61 440.93 634.48 433.00 C 634.87 424.30 635.99 415.17 640.77 407.67 C 644.16 402.11 650.45 398.34 656.98 398.22 C 662.09 398.37 665.99 402.36 668.77 406.27 C 668.70 397.49 668.79 388.72 668.74 379.95 C 668.61 378.06 668.32 375.74 666.59 374.65 C 664.74 373.85 662.69 373.70 660.74 373.36 C 660.74 372.52 660.75 370.84 660.75 370.00 M 659.13 406.18 C 656.40 406.79 654.65 409.35 653.66 411.80 C 651.83 416.62 651.40 421.83 651.13 426.94 C 650.87 434.58 650.73 442.39 652.61 449.86 C 653.53 453.19 655.27 457.33 659.17 457.86 C 664.45 457.97 667.73 452.53 668.70 447.97 C 668.78 436.99 668.78 426.01 668.70 415.04 C 667.91 410.65 664.22 405.16 659.13 406.18 Z"
       id="path21"
       style="fill:#0000ff;fill-opacity:1" />
    <path
       fill="#ffffff"
       opacity="1.00"
       d=" M 882.99 370.00 C 890.85 370.02 898.70 369.96 906.56 370.03 C 919.18 389.62 931.83 409.19 944.50 428.74 C 944.50 414.15 944.49 399.56 944.50 384.96 C 944.43 381.70 943.69 378.12 941.07 375.92 C 939.26 374.10 936.60 373.82 934.23 373.30 C 934.22 372.20 934.23 371.10 934.25 370.00 C 942.16 370.00 950.08 370.00 957.99 370.00 C 958.00 370.83 958.01 372.48 958.01 373.31 C 953.96 373.90 949.78 376.52 949.57 381.01 C 949.41 409.25 949.54 437.49 949.51 465.73 C 948.39 465.74 947.29 465.77 946.19 465.80 C 929.98 441.14 913.78 416.48 897.50 391.88 C 897.50 410.93 897.52 429.98 897.49 449.02 C 897.41 452.36 898.16 456.02 900.74 458.35 C 902.63 460.09 905.26 460.52 907.76 460.62 C 907.74 461.74 907.74 462.86 907.76 464.00 C 899.34 464.00 890.92 464.00 882.50 464.00 C 882.48 462.88 882.48 461.78 882.48 460.68 C 885.44 459.91 888.95 459.41 890.85 456.71 C 892.35 454.46 892.44 451.63 892.51 449.02 C 892.49 427.26 892.50 405.50 892.50 383.75 C 889.73 379.90 887.23 375.57 883.02 373.12 C 883.02 372.34 883.00 370.78 882.99 370.00 Z"
       id="path22"
       style="fill:#0000ff;fill-opacity:1" />
    <path
       fill="#ffffff"
       opacity="1.00"
       d=" M 1247.50 370.00 C 1254.41 370.00 1261.33 370.00 1268.25 370.00 C 1268.22 389.80 1268.31 409.61 1268.20 429.41 C 1272.36 424.40 1276.29 419.19 1280.40 414.14 C 1282.21 411.93 1283.63 409.42 1284.64 406.75 C 1283.42 404.15 1280.53 403.55 1278.00 403.07 C 1278.00 402.24 1278.00 400.58 1278.00 399.75 C 1285.83 399.75 1293.67 399.75 1301.51 399.75 C 1301.48 400.89 1301.47 402.04 1301.47 403.19 C 1294.71 404.01 1290.42 409.56 1286.24 414.31 C 1284.37 416.50 1282.64 418.80 1280.88 421.07 C 1287.82 433.35 1294.95 445.52 1301.88 457.81 C 1302.43 459.14 1303.53 460.08 1304.71 460.88 C 1304.72 461.91 1304.74 462.95 1304.77 463.99 C 1296.10 464.01 1287.42 463.99 1278.75 464.00 C 1278.75 463.17 1278.75 461.50 1278.75 460.66 C 1281.32 460.97 1284.90 459.20 1283.13 456.14 C 1279.54 448.21 1274.51 441.00 1270.33 433.37 C 1269.62 434.40 1268.93 435.44 1268.25 436.48 C 1268.43 443.26 1267.83 450.09 1268.65 456.84 C 1268.82 459.60 1271.80 460.20 1274.00 460.70 C 1274.00 461.53 1274.00 463.18 1274.00 464.00 C 1265.16 464.00 1256.33 464.00 1247.50 464.00 C 1247.50 463.21 1247.50 461.63 1247.49 460.83 C 1250.77 460.32 1252.60 457.11 1252.48 453.98 C 1252.51 429.32 1252.50 404.65 1252.49 379.99 C 1252.78 376.77 1250.73 373.73 1247.49 373.20 C 1247.50 372.40 1247.50 370.80 1247.50 370.00 Z"
       id="path23"
       style="fill:#0000ff;fill-opacity:1" />
    <path
       fill="#ffffff"
       opacity="1.00"
       d=" M 549.38 376.60 C 550.10 376.56 551.53 376.49 552.25 376.45 C 552.26 384.22 552.25 391.98 552.25 399.75 C 555.75 399.75 559.25 399.75 562.75 399.75 C 562.75 401.83 562.75 403.91 562.75 406.00 C 559.25 406.00 555.75 406.00 552.25 406.00 C 552.30 420.24 552.16 434.49 552.31 448.73 C 552.47 451.56 553.17 455.91 556.86 455.79 C 560.10 454.81 561.47 451.38 562.96 448.67 C 563.66 448.94 565.05 449.49 565.75 449.76 C 563.92 454.94 561.18 460.29 556.16 463.02 C 551.31 465.57 544.56 465.48 540.55 461.41 C 537.57 458.08 536.51 453.46 536.49 449.10 C 536.51 434.73 536.49 420.37 536.50 406.00 C 534.66 405.99 532.83 406.00 531.00 406.00 C 530.99 404.71 530.99 403.43 531.00 402.15 C 538.60 394.81 544.41 385.86 549.38 376.60 Z"
       id="path24"
       style="fill:#0000ff;fill-opacity:1" />
    <path
       fill="#ffffff"
       opacity="1.00"
       d=" M 831.47 376.53 C 832.17 376.52 833.55 376.50 834.25 376.48 C 834.25 384.24 834.25 391.99 834.25 399.75 C 837.75 399.75 841.25 399.75 844.75 399.75 C 844.74 401.83 844.75 403.91 844.75 406.00 C 841.25 406.00 837.74 406.00 834.25 406.00 C 834.30 420.25 834.16 434.50 834.31 448.75 C 834.46 451.59 835.20 455.95 838.91 455.79 C 842.11 454.74 843.48 451.38 844.96 448.67 C 845.66 448.94 847.06 449.49 847.75 449.76 C 845.93 454.91 843.21 460.24 838.24 462.98 C 833.39 465.57 826.64 465.50 822.59 461.46 C 819.57 458.11 818.51 453.46 818.49 449.07 C 818.51 434.71 818.49 420.36 818.50 406.00 C 816.65 405.99 814.82 406.00 813.00 406.00 C 812.99 404.71 812.99 403.43 813.00 402.15 C 820.65 394.80 826.39 385.77 831.47 376.53 Z"
       id="path25"
       style="fill:#0000ff;fill-opacity:1" />
    <path
       fill="#ffffff"
       opacity="1.00"
       d=" M 1016.00 402.15 C 1023.73 394.86 1029.22 385.66 1034.59 376.61 C 1035.26 376.55 1036.58 376.44 1037.24 376.38 C 1037.26 384.17 1037.24 391.96 1037.25 399.75 C 1040.74 399.75 1044.24 399.75 1047.75 399.75 C 1047.74 401.83 1047.74 403.91 1047.75 406.00 C 1044.24 406.00 1040.74 406.00 1037.25 406.00 C 1037.25 419.34 1037.26 432.68 1037.24 446.03 C 1037.25 448.61 1037.33 451.30 1038.40 453.70 C 1039.11 455.45 1041.55 456.45 1043.15 455.24 C 1045.55 453.76 1046.65 451.03 1047.96 448.67 C 1048.66 448.94 1050.06 449.49 1050.75 449.76 C 1048.92 454.91 1046.20 460.26 1041.22 462.99 C 1036.35 465.58 1029.58 465.49 1025.55 461.41 C 1021.82 457.26 1021.26 451.36 1021.49 446.03 C 1021.51 432.68 1021.49 419.34 1021.50 406.00 C 1019.65 405.99 1017.82 406.00 1016.00 406.00 C 1015.99 404.71 1015.99 403.43 1016.00 402.15 Z"
       id="path26"
       style="fill:#0000ff;fill-opacity:1" />
    <path
       fill="#ffffff"
       opacity="1.00"
       d=" M 1557.36 376.61 C 1558.08 376.57 1559.52 376.49 1560.25 376.44 C 1560.25 384.21 1560.25 391.98 1560.25 399.75 C 1563.74 399.75 1567.24 399.75 1570.75 399.75 C 1570.73 401.83 1570.74 403.91 1570.75 406.00 C 1567.24 406.00 1563.74 406.00 1560.25 406.00 C 1560.30 420.22 1560.16 434.43 1560.31 448.65 C 1560.45 451.51 1561.13 455.92 1564.88 455.80 C 1568.10 454.78 1569.47 451.38 1570.96 448.67 C 1571.66 448.94 1573.05 449.49 1573.75 449.76 C 1571.92 454.91 1569.21 460.24 1564.23 462.98 C 1559.37 465.57 1552.60 465.50 1548.57 461.43 C 1545.56 458.08 1544.50 453.43 1544.49 449.04 C 1544.50 434.69 1544.49 420.34 1544.50 406.00 C 1542.64 405.99 1540.82 406.00 1539.00 406.00 C 1538.98 404.71 1538.98 403.43 1539.00 402.15 C 1546.59 394.82 1552.41 385.87 1557.36 376.61 Z"
       id="path27"
       style="fill:#0000ff;fill-opacity:1" />
    <path
       fill="#ffffff"
       opacity="1.00"
       d=" M 705.18 407.10 C 709.91 400.29 719.04 396.62 727.10 398.90 C 731.34 400.07 734.96 403.05 737.14 406.86 C 741.22 413.82 742.17 422.07 742.57 429.99 C 733.28 430.01 723.99 429.99 714.71 430.01 C 714.87 436.81 715.54 443.92 718.80 450.03 C 720.84 453.94 725.43 456.69 729.88 455.49 C 734.68 454.36 737.73 450.16 740.40 446.35 C 741.35 447.10 742.18 447.95 742.90 448.92 C 739.78 455.01 735.24 460.90 728.88 463.80 C 720.41 467.37 709.73 464.00 704.66 456.38 C 699.85 449.29 698.70 440.43 698.48 432.06 C 698.79 423.43 700.15 414.34 705.18 407.10 M 716.32 407.18 C 714.41 412.81 714.18 418.85 714.24 424.75 C 718.99 424.75 723.74 424.75 728.50 424.75 C 728.52 419.50 728.54 414.20 727.60 409.03 C 726.84 406.29 725.23 402.94 722.00 402.75 C 719.20 402.19 717.15 404.85 716.32 407.18 Z"
       id="path28"
       style="fill:#0000ff;fill-opacity:1" />
    <path
       fill="#ffffff"
       opacity="1.00"
       d=" M 778.55 400.61 C 784.19 396.72 792.57 397.62 797.24 402.65 C 800.31 406.35 801.56 411.22 801.74 415.95 C 801.82 428.64 801.66 441.33 801.80 454.02 C 801.59 457.45 804.06 460.47 807.52 460.77 C 807.50 461.84 807.49 462.91 807.50 464.00 C 798.83 464.00 790.16 464.00 781.50 464.00 C 781.50 463.20 781.50 461.60 781.50 460.80 C 784.56 460.06 786.55 457.16 786.47 454.05 C 786.53 441.38 786.48 428.71 786.50 416.04 C 786.43 412.88 785.52 408.73 782.01 407.80 C 777.08 407.14 773.72 411.87 771.84 415.77 C 771.67 428.82 771.73 441.88 771.82 454.93 C 771.70 457.93 774.05 460.34 776.95 460.71 C 776.97 461.80 776.99 462.90 777.02 464.00 C 768.01 464.00 759.00 464.00 749.98 464.00 C 749.99 462.88 750.00 461.78 750.03 460.68 C 753.08 460.50 756.07 458.25 756.03 454.98 C 756.01 439.66 755.93 424.33 756.07 409.01 C 756.28 405.55 753.02 403.55 750.00 403.10 C 750.00 402.26 750.00 400.59 750.00 399.75 C 757.08 399.75 764.16 399.75 771.25 399.75 C 771.25 403.10 771.26 406.45 771.20 409.81 C 773.08 406.36 775.18 402.81 778.55 400.61 Z"
       id="path29"
       style="fill:#0000ff;fill-opacity:1" />
    <path
       fill="#ffffff"
       opacity="1.00"
       d=" M 971.32 408.39 C 975.48 401.37 984.02 397.16 992.12 398.45 C 996.91 399.20 1001.26 402.14 1003.78 406.28 C 1008.17 413.34 1009.16 421.86 1009.57 429.99 C 1000.28 430.01 990.99 429.99 981.71 430.01 C 981.87 436.82 982.54 443.93 985.80 450.04 C 987.84 453.95 992.44 456.69 996.88 455.49 C 1001.63 454.36 1004.73 450.24 1007.31 446.40 C 1008.22 447.18 1009.14 447.97 1010.07 448.77 C 1007.12 454.25 1003.28 459.51 997.89 462.80 C 989.49 467.72 977.75 464.82 972.13 457.01 C 966.89 449.84 965.70 440.62 965.48 431.98 C 965.77 423.87 967.02 415.43 971.32 408.39 M 983.35 407.10 C 981.40 412.75 981.18 418.82 981.24 424.75 C 985.99 424.75 990.74 424.75 995.50 424.75 C 995.52 419.51 995.53 414.23 994.61 409.06 C 993.85 406.34 992.29 403.01 989.09 402.76 C 986.29 402.15 984.20 404.76 983.35 407.10 Z"
       id="path30"
       style="fill:#0000ff;fill-opacity:1" />
    <path
       fill="#ffffff"
       opacity="1.00"
       d=" M 1159.52 398.78 C 1167.17 397.03 1175.45 400.56 1180.46 406.40 C 1186.29 413.54 1188.11 423.06 1188.51 432.04 C 1188.14 440.25 1186.57 448.81 1181.79 455.68 C 1177.64 461.67 1170.42 465.04 1163.23 465.19 C 1156.47 464.84 1149.73 461.80 1145.66 456.29 C 1140.51 449.35 1138.86 440.47 1138.50 432.02 C 1138.90 424.19 1140.46 416.17 1144.57 409.39 C 1147.87 404.03 1153.33 400.04 1159.52 398.78 M 1161.29 403.22 C 1157.32 405.11 1156.39 410.00 1155.86 413.93 C 1154.94 422.33 1154.87 430.81 1155.08 439.25 C 1155.43 445.05 1155.34 451.06 1157.43 456.58 C 1158.60 459.74 1162.05 462.73 1165.59 461.42 C 1169.28 460.21 1170.22 455.88 1170.80 452.51 C 1172.32 441.41 1172.21 430.13 1171.61 418.95 C 1171.23 414.66 1171.05 410.15 1169.07 406.23 C 1167.73 403.42 1164.16 401.88 1161.29 403.22 Z"
       id="path31"
       style="fill:#0000ff;fill-opacity:1" />
    <path
       fill="#ffffff"
       opacity="1.00"
       d=" M 1228.05 399.23 C 1231.95 397.20 1237.55 398.15 1239.84 402.14 C 1242.18 406.08 1242.51 411.32 1240.39 415.42 C 1238.69 418.83 1233.52 419.64 1230.85 416.99 C 1228.65 414.93 1227.56 411.94 1225.08 410.15 C 1219.77 412.57 1218.68 418.85 1218.56 424.06 C 1218.42 433.04 1218.55 442.03 1218.49 451.02 C 1218.52 453.98 1218.81 457.57 1221.51 459.40 C 1222.98 460.58 1224.97 460.45 1226.76 460.74 C 1226.74 461.82 1226.74 462.90 1226.75 464.00 C 1216.83 464.00 1206.92 464.00 1197.00 464.00 C 1197.00 463.18 1197.00 461.54 1197.00 460.72 C 1200.82 460.37 1203.22 456.85 1202.97 453.16 C 1203.00 438.73 1203.06 424.28 1202.94 409.85 C 1203.19 406.24 1200.57 403.32 1197.00 403.05 C 1197.00 402.23 1197.00 400.58 1197.00 399.75 C 1204.08 399.75 1211.16 399.75 1218.25 399.75 C 1218.24 403.20 1218.27 406.65 1218.19 410.10 C 1220.74 405.93 1223.54 401.51 1228.05 399.23 Z"
       id="path32"
       style="fill:#0000ff;fill-opacity:1" />
    <path
       fill="#ffffff"
       opacity="1.00"
       d=" M 1427.34 412.15 C 1430.13 405.21 1436.39 399.66 1443.87 398.50 C 1450.38 397.21 1457.58 399.94 1461.28 405.53 C 1466.11 412.69 1467.13 421.58 1467.57 429.99 C 1458.28 430.01 1448.99 429.99 1439.71 430.01 C 1439.87 436.82 1440.54 443.93 1443.80 450.04 C 1445.85 453.96 1450.46 456.70 1454.91 455.48 C 1459.61 454.33 1462.76 450.28 1465.26 446.41 C 1466.18 447.18 1467.12 447.96 1468.08 448.75 C 1465.11 454.26 1461.25 459.55 1455.83 462.84 C 1449.73 466.43 1441.85 465.73 1435.87 462.25 C 1430.33 458.96 1427.01 452.97 1425.40 446.90 C 1422.42 435.51 1422.87 423.09 1427.34 412.15 M 1441.33 407.16 C 1439.40 412.79 1439.18 418.84 1439.24 424.75 C 1443.99 424.75 1448.74 424.75 1453.50 424.75 C 1453.52 419.52 1453.53 414.26 1452.62 409.10 C 1451.86 406.35 1450.28 402.99 1447.05 402.76 C 1444.23 402.16 1442.17 404.81 1441.33 407.16 Z"
       id="path33"
       style="fill:#0000ff;fill-opacity:1" />
    <path
       fill="#ffffff"
       opacity="1.00"
       d=" M 1503.57 400.60 C 1509.22 396.72 1517.57 397.63 1522.24 402.65 C 1525.52 406.61 1526.72 411.88 1526.76 416.93 C 1526.79 429.29 1526.68 441.65 1526.80 454.01 C 1526.59 457.45 1529.04 460.47 1532.52 460.77 C 1532.49 461.84 1532.48 462.91 1532.50 464.00 C 1523.83 464.00 1515.16 464.00 1506.50 464.00 C 1506.50 463.20 1506.50 461.60 1506.50 460.80 C 1509.62 460.05 1511.58 457.06 1511.48 453.91 C 1511.52 441.29 1511.48 428.67 1511.50 416.06 C 1511.43 412.89 1510.52 408.71 1506.98 407.80 C 1502.06 407.16 1498.73 411.86 1496.85 415.75 C 1496.66 428.80 1496.73 441.87 1496.82 454.93 C 1496.68 457.97 1499.09 460.33 1502.00 460.74 C 1502.00 461.56 1502.00 463.19 1502.00 464.00 C 1493.00 464.00 1484.00 464.00 1475.00 464.00 C 1475.00 463.17 1475.00 461.52 1475.00 460.69 C 1478.05 460.47 1481.08 458.29 1481.04 454.97 C 1481.00 439.62 1480.94 424.26 1481.06 408.91 C 1481.22 405.49 1477.97 403.55 1475.00 403.10 C 1475.00 402.26 1475.00 400.59 1475.00 399.75 C 1482.08 399.75 1489.16 399.75 1496.25 399.75 C 1496.24 403.10 1496.26 406.45 1496.21 409.80 C 1498.08 406.35 1500.19 402.79 1503.57 400.60 Z"
       id="path34"
       style="fill:#0000ff;fill-opacity:1" />
    <path
       fill="#ffffff"
       opacity="1.00"
       d=" M 1584.34 408.37 C 1588.50 401.36 1597.03 397.16 1605.12 398.45 C 1609.90 399.20 1614.24 402.13 1616.77 406.26 C 1621.17 413.33 1622.16 421.85 1622.57 429.99 C 1613.28 430.01 1603.99 429.99 1594.71 430.01 C 1594.87 436.82 1595.54 443.93 1598.80 450.04 C 1600.86 453.98 1605.51 456.73 1609.97 455.47 C 1614.71 454.31 1617.72 450.16 1620.39 446.39 C 1621.25 447.18 1622.14 447.98 1623.06 448.79 C 1620.21 454.09 1616.52 459.14 1611.43 462.48 C 1602.97 467.85 1590.77 464.97 1585.04 456.91 C 1579.88 449.75 1578.69 440.59 1578.48 431.99 C 1578.77 423.87 1580.02 415.41 1584.34 408.37 M 1596.35 407.10 C 1594.40 412.75 1594.18 418.82 1594.24 424.75 C 1598.99 424.75 1603.74 424.75 1608.50 424.75 C 1608.52 419.51 1608.53 414.22 1607.61 409.06 C 1606.85 406.30 1605.23 402.93 1601.98 402.75 C 1599.21 402.20 1597.19 404.80 1596.35 407.10 Z"
       id="path35"
       style="fill:#0000ff;fill-opacity:1" />
    <path
       fill="#ffffff"
       opacity="1.00"
       d=" M 1660.42 399.56 C 1663.99 397.42 1669.15 397.74 1672.00 400.97 C 1675.16 404.95 1675.69 410.91 1673.39 415.43 C 1671.70 418.79 1666.63 419.63 1663.93 417.07 C 1661.68 415.01 1660.58 411.98 1658.09 410.15 C 1652.79 412.54 1651.68 418.80 1651.56 424.00 C 1651.41 433.01 1651.55 442.02 1651.49 451.03 C 1651.52 453.96 1651.80 457.50 1654.44 459.35 C 1655.90 460.58 1657.94 460.45 1659.76 460.73 C 1659.74 461.82 1659.73 462.90 1659.75 464.00 C 1649.83 464.00 1639.90 464.00 1629.98 464.00 C 1629.97 462.90 1629.99 461.80 1630.04 460.71 C 1633.84 460.37 1636.19 456.84 1635.97 453.20 C 1636.01 438.78 1636.05 424.35 1635.94 409.93 C 1636.22 406.30 1633.60 403.32 1630.00 403.05 C 1630.00 402.23 1630.00 400.58 1630.00 399.75 C 1637.08 399.75 1644.16 399.75 1651.25 399.75 C 1651.24 403.20 1651.27 406.65 1651.19 410.10 C 1653.62 406.12 1656.27 401.96 1660.42 399.56 Z"
       id="path36"
       style="fill:#0000ff;fill-opacity:1" />
    <path
       fill="#ffffff"
       opacity="1.00"
       d=" M 569.51 403.07 C 569.49 401.96 569.49 400.85 569.50 399.75 C 576.50 399.75 583.50 399.75 590.50 399.75 C 590.50 415.84 590.52 431.94 590.49 448.04 C 590.47 450.34 590.67 452.88 592.14 454.78 C 593.67 456.81 596.60 457.19 598.90 456.44 C 601.75 455.38 603.87 453.07 605.78 450.79 C 605.64 437.24 605.90 423.69 605.66 410.16 C 605.66 406.22 602.40 403.56 598.76 402.96 C 598.76 402.16 598.75 400.55 598.74 399.75 C 606.16 399.75 613.58 399.75 621.00 399.75 C 621.02 417.19 620.97 434.63 621.02 452.07 C 620.77 455.51 623.62 458.25 627.00 458.19 C 626.99 459.26 626.99 460.33 627.00 461.40 C 619.88 462.27 612.67 462.74 605.72 464.61 C 605.74 462.22 605.74 459.83 605.79 457.44 C 601.76 461.43 596.67 464.75 590.89 465.21 C 586.42 465.50 581.43 464.07 578.77 460.23 C 576.31 456.72 575.40 452.35 575.25 448.13 C 575.20 435.03 575.30 421.92 575.21 408.82 C 575.38 405.52 572.38 403.61 569.51 403.07 Z"
       id="path37"
       style="fill:#0000ff;fill-opacity:1" />
    <path
       fill="#ffffff"
       opacity="1.00"
       d=" M 1056.48 399.75 C 1064.74 399.75 1072.99 399.75 1081.25 399.75 C 1081.25 400.56 1081.25 402.19 1081.25 403.00 C 1080.08 403.39 1078.93 403.79 1077.80 404.19 C 1077.06 405.90 1076.69 407.76 1077.27 409.58 C 1079.86 419.47 1083.11 429.17 1085.79 439.04 C 1088.28 431.33 1090.85 423.64 1093.24 415.90 C 1092.68 412.60 1091.87 409.34 1090.99 406.11 C 1090.14 404.10 1087.87 403.60 1086.01 403.02 C 1086.00 402.20 1086.00 400.57 1086.00 399.75 C 1094.75 399.75 1103.50 399.75 1112.25 399.75 C 1112.25 400.57 1112.25 402.20 1112.24 403.01 C 1110.52 403.49 1108.36 403.62 1107.42 405.39 C 1106.39 406.72 1107.38 408.48 1107.51 409.96 C 1109.76 419.43 1111.75 428.96 1113.52 438.53 C 1116.49 428.75 1119.67 418.99 1122.14 409.07 C 1122.73 405.68 1119.38 403.61 1116.51 403.07 C 1116.49 401.96 1116.48 400.85 1116.50 399.75 C 1121.66 399.75 1126.83 399.75 1132.01 399.75 C 1132.00 400.56 1131.98 402.18 1131.98 402.99 C 1128.78 403.94 1127.28 407.12 1126.43 410.08 C 1120.97 427.80 1115.57 445.54 1110.16 463.28 C 1110.14 465.30 1108.37 465.44 1106.79 465.38 C 1103.03 451.53 1099.25 437.69 1095.56 423.82 C 1090.80 437.54 1086.58 451.45 1082.06 465.25 C 1081.25 465.25 1079.62 465.25 1078.81 465.25 C 1073.27 447.84 1067.61 430.47 1062.15 413.04 C 1060.89 409.43 1060.48 404.79 1056.54 403.02 C 1056.52 402.20 1056.50 400.57 1056.48 399.75 Z"
       id="path38"
       style="fill:#0000ff;fill-opacity:1" />
  </g>
</svg>
